<svg version="1.0" xmlns="http://www.w3.org/2000/svg" width="634.667" height="634.667" viewBox="0 0 476 476"><path d="M194.4 130c-5.3 2.1-5.4 2.6-5.4 41.6 0 35 .1 36.2 2.1 38.8l2 2.6h75.6l2.1-2.3c2-2.1 2.2-3.4 2.2-14.8v-12.4l12.7-12.7 12.8-12.8-7.2-7.2-7.3-7.3-5.5 5.5-5.5 5.4v-9.7c0-5.4-.4-10.7-1-11.7-1.3-2.4-6.4-4.2-7.9-2.7-1.7 1.7-1.3 2.7 1.4 3.7 2.5.9 2.5 1.1 2.5 13.2v12.3l-11 11-11.1 11 .3 7 .3 7 6.9.3c6.8.3 7 .2 10.8-3.5l3.8-3.7v9.7c0 7.1-.3 9.7-1.2 9.7-10.6.4-71.2-.1-71.9-.6-1.4-.9-1.2-70.7.3-72.2.9-.9 9.4-1.2 32-1.2 29.6 0 30.8-.1 30.8-1.9 0-1-.7-2.2-1.6-2.5-2.4-.9-59.6-.6-62 .4zm93.8 23.7c3.3 3.2 3.5 4.4.8 6.8-2 1.8-2.2 1.8-5.7-1.8-3.6-3.5-3.6-3.7-1.8-5.7 2.4-2.6 3.3-2.5 6.7.7zm-8 8c1.5 1.5 2.8 3.1 2.8 3.7 0 .6-5.5 6.6-12.2 13.3-11.4 11.4-12.6 12.3-16 12.3-3.7 0-3.8-.1-3.8-3.7 0-3.5 1-4.7 12.2-16 6.8-6.8 12.7-12.3 13.2-12.3.6 0 2.3 1.2 3.8 2.7z"/><path d="M204.3 148.6c-.3.9 0 2 .8 2.5s12.9.8 26.9.6l25.5-.2.3-2.3.3-2.2h-26.6c-23.4 0-26.6.2-27.2 1.6zM204 164c0 2 .7 2 27 2s27 0 27-2-.7-2-27-2-27 0-27 2zm1.1 12.9c-.8.5-1.1 1.6-.8 2.5.6 1.5 2.8 1.6 18.4 1.4 17-.3 17.8-.4 17.8-2.3s-.7-2-17-2.2c-9.3-.2-17.6.1-18.4.6zm-.8 15.6c-.3.9-.1 2.1.4 2.6s8.2.8 18.4.7c16.6-.3 17.4-.4 17.4-2.3s-.8-2-17.8-2.3c-15.5-.2-17.8 0-18.4 1.3zm182.1 57.9c-2.2 9.5-7.3 35.1-6.9 35.4.3.3 0 1.1-.5 1.8-.6.6-1.2 2.7-1.4 4.5-.2 1.9-.6 4.1-1 4.9-.3.8-.8 2.8-1 4.5-.2 1.6-.6 3.7-.9 4.5-.9 2.3-3.1 10.4-3.2 11.5 0 .5-.7 1.5-1.5 2.2-.9.6-1.1 1.5-.6 2 .5.4 1.1.2 1.3-.5.3-.6.8-1 1.3-.7 1 .6 3.2-5.4 2.4-6.6-.3-.5.1-.6.9-.3s2 1.6 2.7 2.8c3 5.7 12.5 6.7 20.3 2.2 2.6-1.5 4.5-3.2 4.2-3.6-.3-.5 0-1.2.6-1.6.8-.4.9-.3.5.4s-.3 1.2.1 1.2c1.1 0 5.9-7.9 5.5-9.1-.1-.5.3-.9.9-.9.6 0 .8-.9.4-2.1-.5-1.4-.3-1.9.4-1.5.6.4 1.3-.5 1.7-2.1.3-1.5 1-4.1 1.5-5.7 2.1-6.6.7-14.9-2.8-16.5-1.7-.8-2.3-1.6-1.8-2.9.4-1.5-.4-2.3-3.5-3.7-5-2.3-9.3-2.1-15.4.5-5.7 2.4-5.2 2.4-6 .4-.3-.8-.2-1.2.4-.9.6.3 1 0 1-.7s.3-2.4.7-3.7c.5-1.9.3-2.2-.8-1.6-1 .6-1 .3.2-1.1 1.4-1.7 3.9-10.6 3.9-13.8 0-2.1-3-1.4-3.6.8zm19 23.7c4.4 3.4 5.8 7.3 5.5 15.2-.1 4-.5 7.6-.9 8.2-1 1.4-3.5 8.8-3.2 9.7.1.5-.3.8-1 .8-.6 0-.9.3-.5.6.3.3-.7 1.7-2.4 3.1-1.6 1.4-2.6 3-2.2 3.5.3.6.1.8-.5.4-.6-.3-1.6-.1-2.4.6-1.6 1.5-2.8 1.9-8.7 2.6-2.8.3-4.6.1-5.1-.7-.4-.7-1.5-1.4-2.5-1.5-1-.1-1.9-1.1-2-2.2-.1-1-.5-2.9-.9-4.2-1.1-3.5 5.1-32.3 7.4-34.3 1.1-.9 1.6-2 1.2-2.4-.4-.5-.1-.5.5-.1.7.4 2.1.2 3-.3 3.3-1.9 11.8-1.3 14.7 1zm-190.3-18.4c-.6 2.1-1.1 4.2-1.1 4.8 0 .5-.5 2.7-1.1 4.7l-1 3.8H206c-5.3 0-6 .2-6 2s.7 2 5.5 2c3 0 5.5.4 5.5.9s-1.6 8.4-3.5 17.5c-4.1 19.5-4.3 24.3-1.4 28 4.1 5.2 15.5 2.9 22.7-4.5 1.8-1.8 3.2-3.6 3.2-4.1 0-2-3.9-.5-7 2.7-3.9 4.1-9.6 6-13.3 4.6-4.8-1.8-4.8-4.3.2-27.1l3.8-17.5 9.3-.3c8.8-.3 10.9-.9 11-3.5 0-.4-4.3-.7-9.5-.7-10.7 0-10.2.5-8-8.5 1.9-7.9 1.9-8.5-.5-8.5-1.4 0-2.2 1.1-2.9 3.7zm58.9 13.8c-9.8 3.1-17.9 14.1-20.2 27.6-2.1 12 1.3 20.6 9.2 23.9 3.7 1.5 11.5.9 16-1.3 1.8-1 3.4-1.7 3.5-1.7.1 0-.9 4.8-2.1 10.7-2.9 13.2-2.9 13.3-.4 13.3 1.1 0 2-.2 2-.5 0-2.7 13.5-62.8 15-66.7 1.1-2.8 1.7-5.5 1.4-6-1.1-1.8-2.6-.6-4.1 3.2-.9 2.2-1.9 4-2.2 4-.4 0-1.5-1.3-2.4-3-1.2-1.9-3.1-3.3-5.5-4-4.5-1.2-4.6-1.2-10.2.5zm12 5.4c1.6 1.6 3.2 4 3.5 5.3.4 1.4-.7 9.1-2.5 17.4-3.5 16.6-4.5 18.4-12.2 20.5-12.4 3.3-20.3-7.4-16.5-22.4 3.1-12.4 7.2-18.6 14.2-21.8 6-2.8 10.1-2.4 13.5 1zM86.7 271c-.5 1.9.1 2 13.3 2.2l13.8.3-20.9 22.2C81.4 307.9 72 318.6 72 319.4c0 1.4 2.4 1.6 19.5 1.6 16.7 0 19.5-.2 19.5-1.5s-2.4-1.5-16-1.5c-8.8 0-16-.3-16-.8 0-.4 9.2-10.5 20.4-22.4 11.2-12 20.6-22.7 20.9-23.8.5-1.9 0-2-16.3-2-15.8 0-16.8.1-17.3 2zm56.7.7c.3 1.6 1.9 12.1 3.7 23.5l3.1 20.6-5.7 8c-3.1 4.4-6.7 8.5-8 9.2-3.5 1.9-7.5.5-8.8-3.1-1.5-3.9-5.4-3.8-4.9.1.5 3.6 4.2 7 8.4 7.6 4.1.7 9.6-2.4 14-8 2.5-3.1 36.8-59.2 36.8-60.2 0-.2-1.1-.4-2.4-.4-2 0-4.1 2.9-14.2 20.2l-11.8 20.3-2.8-19.5c-1.5-10.7-2.7-19.8-2.8-20.3 0-.4-1.2-.7-2.6-.7-2.3 0-2.5.3-2 2.7zm178.1-.5c1.1 4.6 6.5 40.4 6.5 42.9 0 3-8.8 16.1-12.5 18.5-3.7 2.4-7.7 1.5-9.5-2.3-1.6-3.4-4.2-4-4.8-1.1-.5 2.8 2.8 6.7 6.7 7.9 3.1.9 4.3.8 6.7-.4 6.9-3.7 9-6.6 28.9-39.7 18.5-30.7 17.1-28 14.3-28-1.9.1-4.2 3.3-13.8 20-6.3 11-11.8 20-12.1 20-.3 0-1.3-5.7-2.3-12.8-3.9-28.6-3.6-27.2-6.2-27.2-2 0-2.3.4-1.9 2.2z"/><path d="M410 274.9c0 .5.7 1.1 1.4 1.4 1 .4 1.3.1.9-.9-.6-1.5-2.3-1.9-2.3-.5z"/></svg>