<?xml version="1.0" standalone="no"?>
<!DOCTYPE svg PUBLIC "-//W3C//DTD SVG 20010904//EN"
 "http://www.w3.org/TR/2001/REC-SVG-20010904/DTD/svg10.dtd">
<svg version="1.0" xmlns="http://www.w3.org/2000/svg"
 width="476.000000pt" height="476.000000pt" viewBox="0 0 476.000000 476.000000"
 preserveAspectRatio="xMidYMid meet">
<metadata>
Created by potrace 1.14, written by Peter Selinger 2001-2017
</metadata>
<g transform="translate(0.000000,476.000000) scale(0.100000,-0.100000)"
fill="#000000" stroke="none">
<path d="M1944 3460 c-53 -21 -54 -26 -54 -416 0 -350 1 -362 21 -388 l20 -26
378 0 378 0 21 23 c20 21 22 34 22 148 l0 124 127 127 128 128 -72 72 -73 73
-55 -55 -55 -54 0 97 c0 54 -4 107 -10 117 -13 24 -64 42 -79 27 -17 -17 -13
-27 14 -37 25 -9 25 -11 25 -132 l0 -123 -110 -110 -111 -110 3 -70 3 -70 69
-3 c68 -3 70 -2 108 35 l38 37 0 -97 c0 -71 -3 -97 -12 -97 -106 -4 -712 1
-719 6 -14 9 -12 707 3 722 9 9 94 12 320 12 296 0 308 1 308 19 0 10 -7 22
-16 25 -24 9 -596 6 -620 -4z m938 -237 c33 -32 35 -44 8 -68 -20 -18 -22 -18
-57 18 -36 35 -36 37 -18 57 24 26 33 25 67 -7z m-80 -80 c15 -15 28 -31 28
-37 0 -6 -55 -66 -122 -133 -114 -114 -126 -123 -160 -123 -37 0 -38 1 -38 37
0 35 10 47 122 160 68 68 127 123 132 123 6 0 23 -12 38 -27z"/>
<path d="M2043 3274 c-3 -9 0 -20 8 -25 8 -5 129 -8 269 -6 l255 2 3 23 3 22
-266 0 c-234 0 -266 -2 -272 -16z"/>
<path d="M2040 3120 c0 -20 7 -20 270 -20 263 0 270 0 270 20 0 20 -7 20 -270
20 -263 0 -270 0 -270 -20z"/>
<path d="M2051 2991 c-8 -5 -11 -16 -8 -25 6 -15 28 -16 184 -14 170 3 178 4
178 23 0 19 -7 20 -170 22 -93 2 -176 -1 -184 -6z"/>
<path d="M2043 2835 c-3 -9 -1 -21 4 -26 5 -5 82 -8 184 -7 166 3 174 4 174
23 0 19 -8 20 -178 23 -155 2 -178 0 -184 -13z"/>
<path d="M3864 2256 c-22 -95 -73 -351 -69 -354 3 -3 0 -11 -5 -18 -6 -6 -12
-27 -14 -45 -2 -19 -6 -41 -10 -49 -3 -8 -8 -28 -10 -45 -2 -16 -6 -37 -9 -45
-9 -23 -31 -104 -32 -115 0 -5 -7 -15 -15 -22 -9 -6 -11 -15 -6 -20 5 -4 11
-2 13 5 3 6 8 10 13 7 10 -6 32 54 24 66 -3 5 1 6 9 3 8 -3 20 -16 27 -28 30
-57 125 -67 203 -22 26 15 45 32 42 36 -3 5 0 12 6 16 8 4 9 3 5 -4 -4 -7 -3
-12 1 -12 11 0 59 79 55 91 -1 5 3 9 9 9 6 0 8 9 4 21 -5 14 -3 19 4 15 6 -4
13 5 17 21 3 15 10 41 15 57 21 66 7 149 -28 165 -17 8 -23 16 -18 29 4 15 -4
23 -35 37 -50 23 -93 21 -154 -5 -57 -24 -52 -24 -60 -4 -3 8 -2 12 4 9 6 -3
10 0 10 7 0 7 3 24 7 37 5 19 3 22 -8 16 -10 -6 -10 -3 2 11 14 17 39 106 39
138 0 21 -30 14 -36 -8z m190 -237 c44 -34 58 -73 55 -152 -1 -40 -5 -76 -9
-82 -10 -14 -35 -88 -32 -97 1 -5 -3 -8 -10 -8 -6 0 -9 -3 -5 -6 3 -3 -7 -17
-24 -31 -16 -14 -26 -30 -22 -35 3 -6 1 -8 -5 -4 -6 3 -16 1 -24 -6 -16 -15
-28 -19 -87 -26 -28 -3 -46 -1 -51 7 -4 7 -15 14 -25 15 -10 1 -19 11 -20 22
-1 10 -5 29 -9 42 -11 35 51 323 74 343 11 9 16 20 12 24 -4 5 -1 5 5 1 7 -4
21 -2 30 3 33 19 118 13 147 -10z"/>
<path d="M2151 2203 c-6 -21 -11 -42 -11 -48 0 -5 -5 -27 -11 -47 l-10 -38
-59 0 c-53 0 -60 -2 -60 -20 0 -18 7 -20 55 -20 30 0 55 -4 55 -9 0 -5 -16
-84 -35 -175 -41 -195 -43 -243 -14 -280 41 -52 155 -29 227 45 18 18 32 36
32 41 0 20 -39 5 -70 -27 -39 -41 -96 -60 -133 -46 -48 18 -48 43 2 271 l38
175 93 3 c88 3 109 9 110 35 0 4 -43 7 -95 7 -107 0 -102 -5 -80 85 19 79 19
85 -5 85 -14 0 -22 -11 -29 -37z"/>
<path d="M2740 2065 c-98 -31 -179 -141 -202 -276 -21 -120 13 -206 92 -239
37 -15 115 -9 160 13 18 10 34 17 35 17 1 0 -9 -48 -21 -107 -29 -132 -29
-133 -4 -133 11 0 20 2 20 5 0 27 135 628 150 667 11 28 17 55 14 60 -11 18
-26 6 -41 -32 -9 -22 -19 -40 -22 -40 -4 0 -15 13 -24 30 -12 19 -31 33 -55
40 -45 12 -46 12 -102 -5z m120 -54 c16 -16 32 -40 35 -53 4 -14 -7 -91 -25
-174 -35 -166 -45 -184 -122 -205 -124 -33 -203 74 -165 224 31 124 72 186
142 218 60 28 101 24 135 -10z"/>
<path d="M867 2050 c-5 -19 1 -20 133 -22 l138 -3 -209 -222 c-115 -122 -209
-229 -209 -237 0 -14 24 -16 195 -16 167 0 195 2 195 15 0 13 -24 15 -160 15
-88 0 -160 3 -160 8 0 4 92 105 204 224 112 120 206 227 209 238 5 19 0 20
-163 20 -158 0 -168 -1 -173 -20z"/>
<path d="M1434 2043 c3 -16 19 -121 37 -235 l31 -206 -57 -80 c-31 -44 -67
-85 -80 -92 -35 -19 -75 -5 -88 31 -15 39 -54 38 -49 -1 5 -36 42 -70 84 -76
41 -7 96 24 140 80 25 31 368 592 368 602 0 2 -11 4 -24 4 -20 0 -41 -29 -142
-202 l-118 -203 -28 195 c-15 107 -27 198 -28 203 0 4 -12 7 -26 7 -23 0 -25
-3 -20 -27z"/>
<path d="M3215 2048 c11 -46 65 -404 65 -429 0 -30 -88 -161 -125 -185 -37
-24 -77 -15 -95 23 -16 34 -42 40 -48 11 -5 -28 28 -67 67 -79 31 -9 43 -8 67
4 69 37 90 66 289 397 185 307 171 280 143 280 -19 -1 -42 -33 -138 -200 -63
-110 -118 -200 -121 -200 -3 0 -13 57 -23 128 -39 286 -36 272 -62 272 -20 0
-23 -4 -19 -22z"/>
<path d="M4100 2011 c0 -5 7 -11 14 -14 10 -4 13 -1 9 9 -6 15 -23 19 -23 5z"/>
</g>
</svg>
